Coordinates
version=1
nRows=27
nColumns=38
inDegrees=no

Units are S.I. units (second, meters, Newtons, ...)
If the header above contains a line with 'inDegrees', this indicates whether rotational values are in degrees (yes) or radians (no).

endheader
time	pelvis_tilt	pelvis_list	pelvis_rotation	pelvis_tx	pelvis_ty	pelvis_tz	hip_flexion_r	hip_adduction_r	hip_rotation_r	knee_angle_r	ankle_angle_r	subtalar_angle_r	mtp_angle_r	hip_flexion_l	hip_adduction_l	hip_rotation_l	knee_angle_l	ankle_angle_l	subtalar_angle_l	mtp_angle_l	lumbar_extension	lumbar_bending	lumbar_rotation	arm_flex_r	arm_add_r	arm_rot_r	elbow_flex_r	pro_sup_r	wrist_flex_r	wrist_dev_r	arm_flex_l	arm_add_l	arm_rot_l	elbow_flex_l	pro_sup_l	wrist_flex_l	wrist_dev_l
0.81	3.09312	1.31359	-1.39348	0.609686	-0.0819221	0.963874	0.108164	-0.132079	-0.170017	1.22054	-0.279757	0	0	-0.275153	-0.0390453	-0.200492	0.273754	-0.253936	0	0	-0.345835	0.0494637	-0.22485	0.177794	-0.352189	0.704534	0.793605	1.23596	0	0	-0.0427839	-0.36068	0.309006	0.863075	1.5708	0	0
0.82	3.07564	1.31213	-1.37485	0.60899	-0.0742377	0.964203	0.121992	-0.12629	-0.169378	1.19216	-0.266181	0	0	-0.288441	-0.0440403	-0.19903	0.267331	-0.251086	0	0	-0.348444	0.0560617	-0.225427	0.175704	-0.354131	0.690924	0.794503	1.23219	0	0	-0.0319427	-0.359645	0.303707	0.867787	1.5708	0	0
0.83	3.06041	1.31087	-1.35807	0.608273	-0.0666076	0.964408	0.134315	-0.121113	-0.168819	1.16036	-0.254014	0	0	-0.301267	-0.0485256	-0.196886	0.2611	-0.248276	0	0	-0.351291	0.0623248	-0.226787	0.174015	-0.355623	0.677108	0.795097	1.22873	0	0	-0.0218647	-0.35816	0.29641	0.873472	1.5708	0	0
0.84	3.04723	1.31008	-1.3436	0.607658	-0.0589748	0.964451	0.145673	-0.116236	-0.16684	1.12557	-0.243523	0	0	-0.313342	-0.0524774	-0.19479	0.255145	-0.245689	0	0	-0.353939	0.0678356	-0.228294	0.172699	-0.356522	0.663544	0.795122	1.22575	0	0	-0.0126001	-0.356711	0.288356	0.879862	1.5708	0	0
0.85	3.03566	1.30996	-1.33115	0.607197	-0.0513058	0.964333	0.156125	-0.11135	-0.163579	1.08791	-0.233585	0	0	-0.324492	-0.0560294	-0.192942	0.249782	-0.243236	0	0	-0.356057	0.0724374	-0.229643	0.171895	-0.356832	0.651313	0.794088	1.22423	0	0	-0.00394973	-0.355668	0.280527	0.88682	1.5708	0	0
0.86	3.02564	1.31035	-1.32064	0.606851	-0.043584	0.96409	0.165371	-0.106345	-0.159522	1.04711	-0.223827	0	0	-0.334952	-0.0591576	-0.191421	0.245142	-0.240548	0	0	-0.357617	0.076291	-0.230765	0.171587	-0.356615	0.640261	0.791774	1.22416	0	0	0.00437842	-0.354556	0.273205	0.893669	1.5708	0	0
0.87	3.01762	1.31104	-1.31245	0.606605	-0.0358023	0.963735	0.17311	-0.101492	-0.154615	1.00328	-0.214968	0	0	-0.345159	-0.0616919	-0.190018	0.240943	-0.237456	0	0	-0.358932	0.0793468	-0.231742	0.171465	-0.356129	0.630382	0.78865	1.22557	0	0	0.0124195	-0.353476	0.266279	0.900448	1.5708	0	0
0.88	3.01166	1.31229	-1.30677	0.606441	-0.027967	0.963207	0.179822	-0.0969348	-0.148413	0.956722	-0.207574	0	0	-0.354962	-0.0634277	-0.18892	0.237006	-0.233965	0	0	-0.359977	0.0815117	-0.232485	0.171546	-0.355357	0.621293	0.785114	1.22813	0	0	0.0199331	-0.352632	0.25912	0.907841	1.5708	0	0
0.89	3.00762	1.31443	-1.30312	0.606298	-0.0200726	0.962449	0.185957	-0.0929451	-0.141603	0.90783	-0.200832	0	0	-0.363911	-0.0643735	-0.187623	0.233417	-0.230412	0	0	-0.360207	0.0829694	-0.233376	0.171631	-0.354238	0.612046	0.781323	1.2309	0	0	0.0269567	-0.351688	0.252417	0.915245	1.5708	0	0
0.9	3.00592	1.31712	-1.30135	0.606125	-0.0120711	0.9615	0.190718	-0.0897245	-0.135352	0.856524	-0.193568	0	0	-0.372411	-0.0646195	-0.185263	0.23007	-0.226389	0	0	-0.359877	0.0838314	-0.234774	0.171065	-0.352648	0.60151	0.777573	1.23539	0	0	0.0333607	-0.350471	0.245928	0.922658	1.5708	0	0
0.91	3.00599	1.32055	-1.30122	0.605958	-0.00398981	0.960372	0.194493	-0.0870557	-0.129391	0.802715	-0.185632	0	0	-0.380079	-0.0641524	-0.181937	0.227197	-0.222114	0	0	-0.358792	0.0840962	-0.236006	0.170213	-0.351408	0.592328	0.773843	1.24098	0	0	0.0398802	-0.349352	0.241145	0.929559	1.5708	0	0
0.92	3.00661	1.32544	-1.30336	0.606065	0.0040969	0.959011	0.199051	-0.0843894	-0.120823	0.746415	-0.178777	0	0	-0.386022	-0.062761	-0.179673	0.225201	-0.217075	0	0	-0.356463	0.0832054	-0.235405	0.169449	-0.34996	0.583963	0.769502	1.24688	0	0	0.0464561	-0.348259	0.237313	0.936051	1.5708	0	0
0.93	3.00738	1.33201	-1.30676	0.60628	0.0123137	0.957437	0.203954	-0.0821322	-0.11154	0.688044	-0.173301	0	0	-0.390168	-0.0605697	-0.178565	0.223833	-0.211616	0	0	-0.352308	0.0815644	-0.233587	0.168214	-0.348504	0.575632	0.764823	1.25263	0	0	0.0528679	-0.346545	0.234145	0.941382	1.5708	0	0
0.94	3.00822	1.33934	-1.31066	0.606538	0.0206755	0.95574	0.207841	-0.0799043	-0.102586	0.627091	-0.169642	0	0	-0.393503	-0.0580316	-0.178035	0.223	-0.206123	0	0	-0.347166	0.0796438	-0.231089	0.166395	-0.347101	0.567068	0.760079	1.25822	0	0	0.0591154	-0.344374	0.23188	0.945498	1.5708	0	0
0.95	3.01021	1.34659	-1.31536	0.606841	0.029156	0.954009	0.209059	-0.077989	-0.0949565	0.562698	-0.168622	0	0	-0.396813	-0.0554706	-0.177097	0.222743	-0.200734	0	0	-0.341937	0.077641	-0.228599	0.164242	-0.345539	0.558253	0.755254	1.26377	0	0	0.065363	-0.342196	0.230946	0.948538	1.5708	0	0
0.96	3.0128	1.35014	-1.31908	0.607023	0.0377649	0.9526	0.202633	-0.0758236	-0.0925012	0.49184	-0.173704	0	0	-0.404111	-0.0543532	-0.176112	0.222136	-0.196249	0	0	-0.340121	0.0769782	-0.226715	0.161708	-0.344582	0.550011	0.751208	1.26992	0	0	0.0720859	-0.339769	0.231093	0.950573	1.5708	0	0
0.97	3.01699	1.34859	-1.32249	0.607076	0.0465083	0.951574	0.187205	-0.0731732	-0.0968037	0.414501	-0.187672	0	0	-0.416944	-0.0550427	-0.175164	0.220824	-0.193087	0	0	-0.34335	0.0778502	-0.225803	0.158639	-0.344227	0.541185	0.749067	1.27601	0	0	0.0790153	-0.337703	0.23263	0.952666	1.5708	0	0
0.98	3.02255	1.34374	-1.32607	0.607116	0.0553849	0.950717	0.166206	-0.0699634	-0.106015	0.334894	-0.208378	0	0	-0.43309	-0.0569707	-0.174612	0.219619	-0.19086	0	0	-0.350125	0.0795395	-0.225465	0.154669	-0.344461	0.531333	0.749488	1.282	0	0	0.085537	-0.335853	0.23434	0.955465	1.5708	0	0
0.99	3.02713	1.33865	-1.32832	0.607233	0.0644751	0.94981	0.144815	-0.0661488	-0.116938	0.259679	-0.228151	0	0	-0.449064	-0.0596717	-0.174984	0.219337	-0.188833	0	0	-0.356826	0.0814718	-0.225414	0.15029	-0.345139	0.523225	0.750596	1.28809	0	0	0.0912434	-0.334275	0.23695	0.957834	1.5708	0	0
1	3.03077	1.33431	-1.3292	0.607496	0.0737251	0.948789	0.12541	-0.0621188	-0.127918	0.193895	-0.242656	0	0	-0.463343	-0.0630205	-0.175647	0.220929	-0.186578	0	0	-0.362389	0.0833205	-0.225926	0.145881	-0.345674	0.516674	0.75161	1.29301	0	0	0.0959886	-0.332834	0.239387	0.959596	1.5708	0	0
1.01	3.03472	1.32972	-1.32971	0.607855	0.0831128	0.947737	0.107297	-0.0583324	-0.139918	0.139464	-0.2541	0	0	-0.477232	-0.0670287	-0.176488	0.224088	-0.183987	0	0	-0.367852	0.0852382	-0.22714	0.141317	-0.345994	0.510617	0.752901	1.29696	0	0	0.100014	-0.331693	0.242443	0.960815	1.5708	0	0
1.02	3.03884	1.32596	-1.33036	0.608344	0.0926298	0.946584	0.0930157	-0.0552137	-0.1515	0.100801	-0.261547	0	0	-0.489664	-0.0711699	-0.177723	0.228878	-0.181452	0	0	-0.372187	0.0867928	-0.228659	0.136814	-0.346118	0.505665	0.754045	1.29995	0	0	0.102995	-0.330413	0.245121	0.961457	1.5708	0	0
1.03	3.04163	1.32253	-1.32999	0.6089	0.10233	0.945432	0.0825334	-0.0524178	-0.162167	0.079658	-0.266509	0	0	-0.501309	-0.0757007	-0.180103	0.234799	-0.179163	0	0	-0.375808	0.0885452	-0.23022	0.132496	-0.346309	0.502026	0.755002	1.3023	0	0	0.1049	-0.329049	0.247886	0.961281	1.5708	0	0
1.04	3.04383	1.32011	-1.32968	0.609581	0.112089	0.944286	0.076974	-0.0502207	-0.169697	0.0762217	-0.268645	0	0	-0.511345	-0.0800542	-0.182247	0.241611	-0.177436	0	0	-0.378402	0.0900356	-0.231628	0.128773	-0.346498	0.500282	0.755453	1.30435	0	0	0.105776	-0.327619	0.250401	0.960376	1.5708	0	0
1.05	3.04514	1.31598	-1.32809	0.610295	0.121857	0.94341	0.0721726	-0.0477152	-0.176593	0.086889	-0.269167	0	0	-0.522228	-0.0856078	-0.184689	0.250063	-0.175783	0	0	-0.382731	0.0923468	-0.232809	0.125002	-0.34697	0.498827	0.756354	1.30773	0	0	0.10669	-0.325995	0.253315	0.958536	1.5708	0	0
1.06	3.04313	1.3164	-1.32459	0.611234	0.131757	0.942358	0.0757904	-0.0458117	-0.176311	0.113126	-0.261723	0	0	-0.523599	-0.0907396	-0.187662	0.261567	-0.17347	0	0	-0.382277	0.0940294	-0.232205	0.120016	-0.346658	0.495058	0.756154	1.31567	0	0	0.107426	-0.323509	0.257221	0.954223	1.5708	0	0
1.07	3.03674	1.31929	-1.31766	0.612391	0.141943	0.941316	0.0833084	-0.0429769	-0.171496	0.147293	-0.253465	0	0	-0.523599	-0.0962262	-0.190523	0.273704	-0.172479	0	0	-0.378114	0.0956349	-0.231385	0.115221	-0.344712	0.490702	0.752866	1.32515	0	0	0.106483	-0.320563	0.260674	0.947884	1.5708	0	0
